# xmcd CD database file
#
# Track frame offsets:
#	150
#	9000
#	24652
#	40180
#	53392
#	67807
#	77795
#	87687
#	99425
#	111407
#	125120
#
# Disc length: 1807 seconds
#
# Revision: 2
# Processed by: cddbd v1.4PL0 Copyright (c) Steve Scherf et al.
# Submitted via: CDex 1.40Beta6
#
DISCID=83070d0b
DTITLE=Chris LeDoux - Songs Of Rodeo Life
DYEAR=1977
DGENRE=Country
TTITLE0=Copenhagen
TTITLE1=Rodeo Life
TTITLE2=Ain't No Place For A Country Boy
TTITLE3=Bareback Jack
TTITLE4=Colorado
TTITLE5=River Boat Gambler
TTITLE6=New Breed
TTITLE7=Hometown Cowboy
TTITLE8=Bull Rider
TTITLE9=Mountain Wild
TTITLE10=Them Bareback Horses
EXTD=
EXTT0=
EXTT1=
EXTT2=
EXTT3=
EXTT4=
EXTT5=
EXTT6=
EXTT7=
EXTT8=
EXTT9=
EXTT10=
PLAYORDER=
